<svg width="22" height="22" viewBox="0 0 22 22" fill="none" xmlns="http://www.w3.org/2000/svg">
<g clip-path="url(#clip0_1_97)">
<path d="M18.3222 11.5418C17.8111 10.8808 17.0398 10.4269 16.0085 10.1802C17.3219 9.51021 17.899 8.37315 17.7406 6.76879C17.6876 6.18701 17.5268 5.6828 17.2579 5.25542C16.9887 4.82795 16.6255 4.48429 16.1669 4.22431C15.7086 3.96401 15.2102 3.76586 14.6728 3.62925C14.1352 3.49264 13.5181 3.39345 12.8217 3.33181V0H10.7858V3.23924C10.4333 3.23924 9.89563 3.24804 9.17294 3.26568V0H7.13675V3.33181C6.84579 3.34065 6.41836 3.34515 5.85428 3.34515L3.05141 3.33181V5.50016H4.51888C5.18878 5.50016 5.58101 5.79992 5.69558 6.3992V10.1938C5.78384 10.1938 5.85428 10.1984 5.90721 10.2072H5.69558V15.5219C5.62514 15.9714 5.36957 16.1963 4.9288 16.1963H3.46142L3.0515 18.6159H5.69581C5.86331 18.6159 6.10555 18.6181 6.423 18.6221C6.74026 18.6265 6.97814 18.6287 7.13684 18.6287V22.0001H9.17335V18.6684C9.54345 18.6774 10.0811 18.6817 10.7862 18.6817V22.0001H12.8222V18.6287C13.5451 18.5935 14.1863 18.5278 14.7458 18.4305C15.3055 18.3332 15.8411 18.1814 16.3522 17.9741C16.8633 17.7671 17.2907 17.5091 17.6344 17.2006C17.9783 16.8924 18.2623 16.5 18.4874 16.0239C18.7119 15.5479 18.8553 14.997 18.9168 14.371C19.0318 13.1462 18.8334 12.203 18.3222 11.5418ZM9.21253 5.6452C9.27426 5.6452 9.44833 5.64298 9.7348 5.63853C10.0214 5.63399 10.2593 5.62964 10.4488 5.6252C10.6383 5.62084 10.8939 5.63186 11.2158 5.65831C11.5375 5.68475 11.8085 5.72008 12.0288 5.76407C12.2491 5.80807 12.4917 5.88082 12.7559 5.98219C13.0205 6.08347 13.2319 6.20692 13.3904 6.35233C13.5492 6.49774 13.6836 6.68293 13.7936 6.90771C13.9039 7.13245 13.959 7.39025 13.959 7.68107C13.959 7.92789 13.9194 8.15272 13.8401 8.35555C13.7611 8.55824 13.6418 8.72796 13.4833 8.86457C13.3248 9.00123 13.1614 9.12034 12.9939 9.22161C12.8266 9.32289 12.6126 9.40448 12.3527 9.46612C12.0928 9.52785 11.8659 9.57634 11.6721 9.61153C11.4781 9.64682 11.2358 9.67113 10.9449 9.68428C10.6539 9.69743 10.4335 9.70642 10.2837 9.71077C10.1338 9.71512 9.92897 9.71512 9.66886 9.71077C9.4087 9.70642 9.25685 9.7041 9.21267 9.7041L9.21253 5.6452ZM14.7723 14.6488C14.6884 14.8517 14.5806 15.0281 14.4485 15.178C14.3161 15.3276 14.1419 15.4599 13.9261 15.5744C13.7103 15.6891 13.5008 15.7815 13.2982 15.852C13.0954 15.9228 12.8507 15.9842 12.5645 16.0373C12.2776 16.0902 12.0266 16.1274 11.8104 16.1496C11.5946 16.1717 11.3369 16.1892 11.0371 16.2026C10.7375 16.2155 10.5038 16.2223 10.3364 16.2223C10.1689 16.2223 9.95731 16.2199 9.70169 16.2155C9.44593 16.2114 9.28301 16.2092 9.21244 16.2092V11.7402C9.28287 11.7402 9.49224 11.7359 9.84048 11.7269C10.1888 11.718 10.4729 11.7139 10.6932 11.7139C10.9136 11.7139 11.2178 11.7269 11.6058 11.7535C11.9934 11.7798 12.3195 11.8193 12.5842 11.8722C12.8485 11.9252 13.137 12.0066 13.4501 12.1169C13.7629 12.227 14.0164 12.3614 14.2104 12.52C14.4044 12.679 14.5673 12.8814 14.6995 13.1283C14.832 13.375 14.8981 13.6571 14.8981 13.9745C14.898 14.2216 14.8562 14.446 14.7723 14.6488Z" fill="white"/>
</g>
<defs>
<clipPath id="clip0_1_97">
<rect width="22" height="22" fill="white"/>
</clipPath>
</defs>
</svg>
