<svg width="69" height="21" viewBox="0 0 69 21" fill="none" xmlns="http://www.w3.org/2000/svg">
<path d="M0.499988 4.60714L4.95653 15.0012C5.11414 15.3688 5.47564 15.6071 5.87561 15.6071H7.56745H9.16788C9.62592 15.6071 10.0254 15.2959 10.1375 14.8518L10.8824 11.8999C11.0903 11.0762 12.1835 10.9022 12.6368 11.6207V11.6207C12.8138 11.9013 13.1223 12.0714 13.4541 12.0714H17.229C17.5158 12.0714 17.7887 11.9483 17.9785 11.7334L18.7038 10.9123C19.1927 10.3587 20.0925 10.5081 20.3764 11.1899L21.8927 14.8313C22.2609 15.7155 23.5415 15.6262 23.7834 14.6995L25.9235 6.50205C25.9783 6.29211 26.0999 6.10569 26.27 5.97092L28.61 4.11644C28.8455 3.92976 29.1525 3.85893 29.4461 3.92354L31.9437 4.47338C32.3157 4.55528 32.6089 4.84141 32.6998 5.21132L34.2135 11.3698C34.4352 12.272 35.6601 12.4106 36.0778 11.5808L38.7432 6.28599C38.7792 6.21463 38.8064 6.13923 38.8244 6.0614L39.7943 1.86235C40.0486 0.761325 41.6479 0.861094 41.7634 1.98519L42.9229 13.2697C43.0437 14.4454 44.7454 14.4758 44.9081 13.3052L45.8802 6.31456C46.0391 5.17201 47.6864 5.16186 47.8594 6.30237L49.3372 16.0471C49.5144 17.216 51.2163 17.164 51.3219 15.9865L51.8025 10.625C51.8487 10.1094 52.2808 9.71429 52.7985 9.71429H57.6014C58.0872 9.71429 58.5027 10.0635 58.5864 10.542L59.8297 17.6517C59.9824 18.525 61.1119 18.7824 61.6279 18.0614L62.7143 16.5436C63.0682 16.0491 63.7779 15.9824 64.2178 16.4021L67.9886 20" stroke="#FF8266" stroke-linecap="round"/>
</svg>
