<svg width="67" height="28" viewBox="0 0 67 28" fill="none" xmlns="http://www.w3.org/2000/svg">
<path d="M0.548096 9L5.86668 1.55844C6.40046 0.811595 7.57422 1.11839 7.67429 2.03091L9.35904 17.3947C9.41465 17.9018 9.84299 18.2857 10.3531 18.2857H15.0999C15.6176 18.2857 16.0497 17.8906 16.0959 17.375L16.5766 12.0135C16.6821 10.836 18.384 10.784 18.5613 11.9529L20.039 21.6976C20.212 22.8381 21.8593 22.828 22.0182 21.6854L22.9903 14.6948C23.1531 13.5242 24.8547 13.5546 24.9755 14.7303L26.135 26.0148C26.2505 27.1389 27.8498 27.2387 28.1041 26.1376L29.074 21.9386C29.092 21.8608 29.1193 21.7854 29.1552 21.714L31.8206 16.4192C32.2384 15.5894 33.4632 15.728 33.6849 16.6302L35.1986 22.7887C35.2895 23.1586 35.5827 23.4447 35.9547 23.5266L38.4523 24.0765C38.7459 24.1411 39.0529 24.0702 39.2885 23.8836L41.6285 22.0291C41.7985 21.8943 41.9201 21.7079 41.9749 21.498L44.115 13.3005C44.3569 12.3738 45.6376 12.2845 46.0057 13.1687L47.522 16.8101C47.8059 17.4919 48.7057 17.6413 49.1947 17.0877L49.9199 16.2666C50.1097 16.0517 50.3827 15.9286 50.6694 15.9286H54.4443C54.7761 15.9286 55.0846 16.0987 55.2617 16.3793V16.3793C55.7149 17.0978 56.8081 16.9238 57.016 16.1001L57.7609 13.1482C57.873 12.7041 58.2725 12.3929 58.7305 12.3929H59.5691C60.0191 12.3929 60.4137 12.0922 60.5332 11.6583L62.3251 5.14965C62.511 4.47418 63.316 4.19437 63.8808 4.60886L65.0749 5.48511C65.2759 5.63256 65.4145 5.84972 65.4637 6.09405L66.3503 10.5" stroke="#48D49E" stroke-linecap="round"/>
</svg>
